<?xml version="1.0" encoding="utf-8"?>
<!-- Generator: Adobe Illustrator 24.2.0, SVG Export Plug-In . SVG Version: 6.00 Build 0)  -->
<svg version="1.1" id="Capa_1" xmlns="http://www.w3.org/2000/svg" xmlns:xlink="http://www.w3.org/1999/xlink" x="0px" y="0px"
	 viewBox="0 0 612 792" style="enable-background:new 0 0 612 792;" xml:space="preserve">
<style type="text/css">
	.st0{fill:none;stroke:#FFFFFF;stroke-width:7;stroke-miterlimit:10;}
	.st1{fill:#FFFFFF;stroke:#FFFFFF;stroke-miterlimit:10;}
	.st2{fill:none;}
	.st3{fill:#FFFFFF;}
	.st4{font-family:'ArialMT';}
	.st5{font-size:40px;}
</style>
<image style="display:none;overflow:visible;enable-background:new    ;" width="626" height="626" xlink:href="D9742703.jpeg"  transform="matrix(0.75 0 0 0.75 71 161)">
</image>
<g>
	<g>
		<path class="st0" d="M196.4,357.4c-2.1-23.8,9.5-46.5,29.4-57.7c26.5-14.9,53.7-1.5,56.2-0.3c17.5,9,25.1,24.3,27.6,29.4
			c5.5,11.4,5.8,20.5,6.4,37.8c0.8,24,1.5,42.5-10.7,53.6c-4.8,4.4-13.6,9.5-20.7,6.6c-9.4-3.8-10.6-19.5-10-27.3
			c1.4-17.9,15.1-28.7,17.9-30.9c2.5-2,14.5-11.5,30.4-11c13.5,0.4,19.3,7.7,30.4,4.1c5-1.6,4.4-3.2,12.8-7.7c9.1-4.8,18-9.5,24.3-7
			c9.6,3.8,14.2,25,7.6,40.7c-7,16.8-21,14.1-27.6,30.1c-7,17.1,6.4,26.4-1.5,43.9c-2.9,6.3-9.7,12-23.5,23.2
			c-19.3,15.8-26.5,16.1-28.9,16.1c-5.2,0-9.6-1.8-20.7-9.5c-16.4-11.3-28.2-19.4-42.1-35.7c-16.6-19.5-13.6-24.1-25.3-31.4
			c-13.7-8.6-21.9-4.6-31.7-14.5c-7.7-7.9-13.5-21.6-8.9-29.9c3.8-6.8,11.3-4.1,22.5-14.5c6.8-6.4,5.6-8.9,11-11.7
			c9.3-5,15.5,1.1,23-4.1c5.6-3.9,7.8-11.2,7.9-16.3c0.1-7.8-4.5-11.7-3.3-12.8c2.4-2.3,28.1,10.2,31.1,32.2
			c1.1,8.1-0.3,21.4-8.4,25.3c-4.5,2.2-11.4,1.5-14-2.3c-1.9-2.8-1.5-6.9,1.3-13.3c7.8-18.1,27.8-39.9,61-50
			c1.7-0.5,3.7-1.1,6.4-1.8c15.5-3.8,51-9.4,75.6,14.5c24.9,24.2,19.6,60.6,18.9,64.6c-6.3,37-37.2,54.3-41.1,56.4"/>
		<path class="st0" d="M326.3,392.1c-1.2-3.8-0.6-7.8,1.8-10.2c3.5-3.5,11-3.4,15.8,2"/>
		<path class="st0" d="M291.4,440.1c-3,3.5-8.1,8.6-15.8,12.8c-7.4,4-14.2,5.5-18.6,6.1"/>
		<path class="st0" d="M362.7,395c2.1,1.4,7.2,4.4,14.2,4.7c8.9,0.3,15.2-3.8,17.1-5.2"/>
		<path class="st0" d="M377.7,349.7c0.1,0.8,1.3,6.5,6.6,9.5c4.2,2.4,9.5,2.1,13.8-0.5"/>
		<circle class="st1" cx="196.4" cy="357.1" r="3"/>
		<path class="st1" d="M377.8,443.1c-1.8,0.9-2.6,3.1-1.6,4.9c1,1.8,3.3,2.3,5,1.2"/>
		<circle class="st1" cx="228.3" cy="372.8" r="5.7"/>
	</g>
</g>
<rect x="236" y="509.5" class="st2" width="286.5" height="172.3"/>
<text id="HEALTLY_PET" transform="matrix(1 0 0 1 188.6801 548.1506)" class="st3 st4 st5">HEALTLY PET</text>
</svg>
